<svg xmlns="http://www.w3.org/2000/svg" width="314" height="25" viewBox="0 0 314 25"><path fill="#EC0000" fill-rule="nonzero" d="M53.721 22.685l.15 1.482h2.523V11.824a14.136 14.136 0 0 0-4.673-.685c-4.616 0-6.952 2.463-6.952 6.805 0 4.149 2.187 6.482 5.476 6.482a3.814 3.814 0 0 0 3.514-1.74h-.038zm-6.205-4.74c0-2.778 1.327-4.491 4.168-4.491.657-.005 1.314.045 1.962.148v7.75c-.755.6-1.695.927-2.663.926-2.392-.056-3.43-1.815-3.43-4.334h-.037zm-10.923 4.12a11.594 11.594 0 0 1-4.55-.926 7.99 7.99 0 0 0-.477 2.5c1.612.673 3.353.989 5.102.926 4.242 0 6.41-1.954 6.41-4.787 0-2.398-1.327-3.806-4.485-5.14l-1.346-.564c-1.747-.74-2.72-1.481-2.72-2.778 0-1.296.982-2.139 3.14-2.139 1.393.014 2.773.258 4.084.723.276-.799.443-1.63.495-2.473a13.833 13.833 0 0 0-4.56-.713c-4.027 0-5.999 1.797-5.999 4.63 0 2.62 1.598 3.926 3.934 4.935l1.27.547c2.356.99 3.29 1.657 3.29 3.092s-1.299 2.195-3.616 2.195l.028-.028zm77.895 2.37c1.45.122 2.838-.6 3.56-1.852l.15 1.574h2.513V6.89a8.34 8.34 0 0 0-2.71.37v4.074a11.2 11.2 0 0 0-2.046-.194c-4.607 0-6.952 2.463-6.952 6.805-.028 4.149 2.196 6.519 5.457 6.519l.028-.028zm1.318-11.01c.738.011 1.474.095 2.196.25v7.621a4.437 4.437 0 0 1-2.748.926c-2.439 0-3.457-1.778-3.457-4.296-.028-2.796 1.27-4.472 3.98-4.472l.029-.028zm-96.79-1.971a5.794 5.794 0 0 0-.766-2.602l-4.159-7.13A5.607 5.607 0 0 1 13.437 0l-.177.296a5.659 5.659 0 0 0 0 5.704l3.326 5.704a5.659 5.659 0 0 1 0 5.703l-.177.297a5.607 5.607 0 0 0-.654-1.723l-3.037-5.222-1.944-3.352a5.718 5.718 0 0 1-.663-1.722l-.169.296a5.65 5.65 0 0 0 0 5.686l3.327 5.722a5.613 5.613 0 0 1 0 5.704l-.168.296a5.755 5.755 0 0 0-.654-1.722l-4.158-7.13c-.563-.93-.845-2-.813-3.083C3.028 12.61 0 15.056 0 17.88 0 21.815 5.943 25 13.26 25c7.316 0 13.269-3.194 13.269-7.13 0-2.814-3.065-5.268-7.513-6.416zm48.703 12.713h2.738v-8.334c0-2.981-1.476-4.731-6.055-4.731-1.68.05-3.35.28-4.98.685v12.38h2.737V13.648c.717-.12 1.442-.185 2.168-.194 2.738 0 3.392.926 3.392 2.889v7.824zm61.29-13.056c-4.364 0-6.083 2.908-6.083 6.583 0 4.223 2.224 6.741 6.803 6.741a9.523 9.523 0 0 0 4.037-.787c.177-.815.327-1.75.43-2.472-1.382.613-2.879.93-4.392.926-2.44 0-3.738-1.065-4.084-3.26h8.746c.103-.695.153-1.398.15-2.101 0-3.065-1.691-5.63-5.607-5.63zm-3.336 5.472c.225-2.092 1.243-3.203 3.187-3.203 1.943 0 2.99 1.185 2.99 3.203h-6.177zm15.998-5.472a17.114 17.114 0 0 0-4.672.685v12.37h2.747V13.603a14.803 14.803 0 0 1 2.018-.148c.69-.006 1.38.028 2.066.102.174-.763.259-1.543.252-2.325-.801-.082-1.606-.122-2.411-.12zm-48.918.713a14.136 14.136 0 0 0-4.672-.685c-4.607 0-6.953 2.463-6.953 6.805 0 4.149 2.196 6.482 5.486 6.482a3.823 3.823 0 0 0 3.513-1.778l.15 1.482h2.513l-.037-12.306zm-2.738 9.528a4.295 4.295 0 0 1-2.663.926c-2.448 0-3.467-1.778-3.467-4.297 0-2.777 1.318-4.49 4.158-4.49.66-.005 1.32.045 1.972.148v7.713zm10.718-10.24c-1.683.05-3.356.28-4.99.684v12.37h2.747V13.649c.717-.12 1.442-.185 2.168-.194 2.738 0 3.383.926 3.383 2.889v7.824h2.738v-8.334c0-2.944-1.467-4.722-6.046-4.722zM79.876 24.073a6.283 6.283 0 0 1-2.317.454c-2.673 0-4.364-1.204-4.364-4.222V7.343c.888-.267 1.81-.401 2.738-.399v4.63h4.336a20.53 20.53 0 0 1-.243 2.315h-4.093v6.037c0 1.602.804 2.222 2.121 2.222a6.256 6.256 0 0 0 2.14-.37c-.075.74-.168 1.574-.318 2.296zm102.115-12.738c4.242 0 5.656 1.713 5.656 4.7v8.373H185.9v-8.044c0-2.302-.873-3.494-3.951-3.494-.981.007-1.958.126-2.911.356v11.14h-1.747V12.036a18.54 18.54 0 0 1 4.7-.699zm13.863 6.043h.056c2.038.671 3.452 1.562 3.452 3.755 0 2.192-1.747 3.562-4.756 3.562a8.735 8.735 0 0 1-4.38-.959c.004-.512.088-1.02.25-1.507a8.775 8.775 0 0 0 4.075.96c1.927 0 3.105-.522 3.105-2.002 0-1.48-1.372-2-2.578-2.37l-1.15-.356c-2.219-.658-3.453-1.782-3.453-3.755 0-2.206 1.76-3.37 4.534-3.37a11.209 11.209 0 0 1 3.95.643 6.616 6.616 0 0 1-.249 1.466 10.676 10.676 0 0 0-3.646-.616c-1.94 0-2.911.438-2.911 1.822 0 1.384.97 1.809 2.523 2.33l1.178.397zM157.37 8.595c-3.91 0-6.488 2.604-6.488 7.18 0 4.578 2.55 7.318 6.502 7.318a9.033 9.033 0 0 0 3.535-.699 9.828 9.828 0 0 1-.277 1.837 10.44 10.44 0 0 1-3.48.52c-5.227 0-8.11-3.535-8.11-8.907 0-5.645 3.05-8.907 8.318-8.907 1.268-.021 2.53.178 3.73.59a6.224 6.224 0 0 1-.306 1.658 10.073 10.073 0 0 0-3.424-.59zm11.23 2.741c4.061 0 6.058 2.795 6.058 6.509 0 4.289-2.218 6.851-6.211 6.851-3.993 0-6.03-2.795-6.03-6.604 0-4.18 2.3-6.756 6.182-6.756zm0 11.812h-.042c2.897 0 4.367-1.877 4.367-5.125s-1.359-5.125-4.326-5.125c-2.966 0-4.353 2.028-4.353 5.07 0 3.316 1.497 5.18 4.353 5.18zm41.826-1.343V11.638h1.65v12.867h-1.65V23.38a5.587 5.587 0 0 1-4.16 1.37c-2.772 0-4.45-1.562-4.45-4.892v-8.221h1.747v7.879c0 2.576 1.054 3.658 3.3 3.658a5.121 5.121 0 0 0 3.563-1.37zm93.233 2.563V7.28a6.405 6.405 0 0 1 1.747-.247v17.335h-1.747zm-8.915-13.073v.041c4.229 0 5.657 1.713 5.657 4.7v8.373h-1.747v-8.044c0-2.302-.873-3.494-3.965-3.494a12.7 12.7 0 0 0-2.898.356v11.1h-1.746V11.993a18.54 18.54 0 0 1 4.7-.699zm-18.951 6.783v.041c0-4.33 2.176-6.783 6.724-6.783a11.572 11.572 0 0 1 4.159.699v12.333h-1.72v-.973a5.095 5.095 0 0 1-3.41 1.26c-3.549 0-5.753-2.343-5.753-6.577zm9.094 3.933l-.027-8.839a9.812 9.812 0 0 0-2.44-.301c-3.355 0-4.88 2.055-4.88 5.248s1.386 5.152 4.159 5.152a4.52 4.52 0 0 0 3.188-1.26zm28.684-10.415l-5.434 5.893L314 24.422h-2.177l-5.74-6.851v-.165l5.352-5.81h2.135zm-63.08.398v.04c1.343-.412 2.74-.63 4.146-.643.722-.009 1.444.023 2.163.096 0 .503-.06 1.004-.18 1.493a13.912 13.912 0 0 0-1.928-.11c-.824.017-1.646.109-2.453.275v11.181h-1.747V11.994zm-8.11-.658c3.744 0 5.352 2.549 5.393 5.742.004.513-.029 1.026-.097 1.534h-9.26c.221 2.974 1.802 4.55 4.658 4.55a8.563 8.563 0 0 0 4.159-1.055c-.056.438-.153 1.11-.277 1.658a7.711 7.711 0 0 1-3.98.931c-4.186 0-6.39-2.494-6.39-6.755 0-3.686 1.635-6.605 5.795-6.605zm3.605 5.714v-.082c0-2.467-1.15-4.11-3.688-4.11-2.537 0-3.729 1.63-3.923 4.192h7.611zm24.053-1.576c2.124.197 3.752 1.949 3.771 4.056 0 3.097-1.94 4.879-6.474 4.879h-5.032V7.362a24.931 24.931 0 0 1 4.159-.356c4.658 0 6.516 1.768 6.516 4.508a4.116 4.116 0 0 1-2.94 3.96zm-6.03-6.7v5.988h3.133c2.676 0 4.062-1.343 4.062-3.056s-1.012-3.083-4.714-3.083c-.83-.002-1.658.048-2.481.15zm3.105 14.018h.042c3.327 0 4.81-1.192 4.81-3.193 0-2-1.538-3.234-4.7-3.234h-3.257v6.427h3.105zm-38.277-11.456c3.77 0 5.282 1.713 5.296 4.7v8.373h-1.761V16.31c0-2.247-1.095-3.44-3.674-3.44a8.4 8.4 0 0 0-3.327.727c.302.778.443 1.607.416 2.44v8.372h-1.747v-8.14c0-2.398-.998-3.398-3.674-3.398a13.36 13.36 0 0 0-3.008.356v11.14h-1.761V12.036a18.962 18.962 0 0 1 4.922-.699 6.126 6.126 0 0 1 3.937 1.041 10.343 10.343 0 0 1 4.38-1.04z"/></svg>